<svg width="23" height="23" viewBox="0 0 23 23" version="1.1" xmlns="http://www.w3.org/2000/svg" xmlns:xlink="http://www.w3.org/1999/xlink">
<title>exclamation</title>
<desc>Created using Figma</desc>
<g id="Canvas" transform="translate(4933 825)">
<g id="exclamation">
<g id="Group">
<g id="Group">
<g id="Vector">
<use xlink:href="#path0_fill" transform="translate(-4933 -825)" fill="#FFFFFF"/>
</g>
</g>
</g>
<g id="Group">
<g id="Group">
<g id="Vector">
<use xlink:href="#path1_fill" transform="translate(-4922.4 -819.211)" fill="#FFFFFF"/>
</g>
</g>
</g>
<g id="Group">
<g id="Group">
<g id="Vector">
<use xlink:href="#path2_fill" transform="translate(-4922.71 -810.528)" fill="#FFFFFF"/>
</g>
</g>
</g>
</g>
</g>
<defs>
<path id="path0_fill" d="M 11.5 0C 5.14342 0 0 5.14387 0 11.5C 0 17.8566 5.14387 23 11.5 23C 17.8566 23 23 17.8561 23 11.5C 23 5.14342 17.8561 0 11.5 0ZM 11.5 21.2031C 6.13664 21.2031 1.79688 16.863 1.79688 11.5C 1.79688 6.13664 6.137 1.79688 11.5 1.79688C 16.8634 1.79688 21.2031 6.137 21.2031 11.5C 21.2031 16.8634 16.863 21.2031 11.5 21.2031Z"/>
<path id="path1_fill" d="M 0.898438 -4.93526e-08C 0.402231 -4.93526e-08 0 0.40223 0 0.898437L 0 6.68406C 0 7.18027 0.402231 7.5825 0.898438 7.5825C 1.39464 7.5825 1.79688 7.18027 1.79688 6.68406L 1.79688 0.898437C 1.79688 0.40223 1.39464 -4.93526e-08 0.898438 -4.93526e-08Z"/>
<path id="path2_fill" d="M 1.21289 2.42578C 1.88275 2.42578 2.42578 1.88275 2.42578 1.21289C 2.42578 0.54303 1.88275 0 1.21289 0C 0.54303 0 0 0.54303 0 1.21289C 0 1.88275 0.54303 2.42578 1.21289 2.42578Z"/>
</defs>
</svg>
