<svg width="249" height="62" viewBox="0 0 249 62" version="1.1" xmlns="http://www.w3.org/2000/svg" xmlns:xlink="http://www.w3.org/1999/xlink">
<title>Group 11</title>
<desc>Created using Figma</desc>
<g id="Canvas" transform="translate(5961 1569)">
<g id="Group 11">
<g id="Joule">
<use xlink:href="#path0_fill" transform="translate(-5882 -1525)" fill="#FFFFFF"/>
</g>
<g id="my_wish_logo">
<g id="path3">
<use xlink:href="#path1_fill" transform="translate(-5961 -1565.27)" fill="#4D525D"/>
</g>
<g id="path5">
<use xlink:href="#path2_fill" transform="translate(-5949.81 -1569)" fill="#FCD600"/>
</g>
<g id="g7">
<g id="g9">
<g id="path11">
<use xlink:href="#path3_fill" transform="translate(-5880.59 -1558.98)" fill="#FFFFFF"/>
</g>
</g>
</g>
</g>
</g>
</g>
<defs>
<path id="path0_fill" d="M 6.84668 4.20312L 8.54297 4.20312L 8.54297 13.2646C 8.54297 14.4893 8.17383 15.4473 7.43555 16.1387C 6.70312 16.8301 5.72461 17.1758 4.5 17.1758C 3.22852 17.1758 2.23828 16.8506 1.5293 16.2002C 0.820313 15.5498 0.46582 14.6387 0.46582 13.4668L 2.15332 13.4668C 2.15332 14.1992 2.35254 14.7705 2.75098 15.1807C 3.15527 15.5908 3.73828 15.7959 4.5 15.7959C 5.19727 15.7959 5.75977 15.5762 6.1875 15.1367C 6.62109 14.6973 6.84082 14.082 6.84668 13.291L 6.84668 4.20312ZM 10.7314 12.1572C 10.7314 11.2256 10.9131 10.3877 11.2764 9.64355C 11.6455 8.89941 12.1553 8.3252 12.8057 7.9209C 13.4619 7.5166 14.209 7.31445 15.0469 7.31445C 16.3418 7.31445 17.3877 7.7627 18.1846 8.65918C 18.9873 9.55566 19.3887 10.748 19.3887 12.2363L 19.3887 12.3506C 19.3887 13.2764 19.21 14.1084 18.8525 14.8467C 18.501 15.5791 17.9941 16.1504 17.332 16.5605C 16.6758 16.9707 15.9199 17.1758 15.0645 17.1758C 13.7754 17.1758 12.7295 16.7275 11.9268 15.8311C 11.1299 14.9346 10.7314 13.748 10.7314 12.2715L 10.7314 12.1572ZM 12.3662 12.3506C 12.3662 13.4053 12.6094 14.252 13.0957 14.8906C 13.5879 15.5293 14.2441 15.8486 15.0645 15.8486C 15.8906 15.8486 16.5469 15.5264 17.0332 14.8818C 17.5195 14.2314 17.7627 13.3232 17.7627 12.1572C 17.7627 11.1143 17.5137 10.2705 17.0156 9.62598C 16.5234 8.97559 15.8672 8.65039 15.0469 8.65039C 14.2441 8.65039 13.5967 8.96973 13.1045 9.6084C 12.6123 10.2471 12.3662 11.1611 12.3662 12.3506ZM 27.2988 16.0596C 26.666 16.8037 25.7373 17.1758 24.5127 17.1758C 23.499 17.1758 22.7256 16.8828 22.1924 16.2969C 21.665 15.7051 21.3984 14.832 21.3926 13.6777L 21.3926 7.49023L 23.0186 7.49023L 23.0186 13.6338C 23.0186 15.0752 23.6045 15.7959 24.7764 15.7959C 26.0186 15.7959 26.8447 15.333 27.2549 14.4072L 27.2549 7.49023L 28.8809 7.49023L 28.8809 17L 27.334 17L 27.2988 16.0596ZM 33.126 17L 31.5 17L 31.5 3.5L 33.126 3.5L 33.126 17ZM 39.6826 17.1758C 38.3936 17.1758 37.3447 16.7539 36.5361 15.9102C 35.7275 15.0605 35.3232 13.9268 35.3232 12.5088L 35.3232 12.21C 35.3232 11.2666 35.502 10.4258 35.8594 9.6875C 36.2227 8.94336 36.7266 8.36328 37.3711 7.94727C 38.0215 7.52539 38.7246 7.31445 39.4805 7.31445C 40.7168 7.31445 41.6777 7.72168 42.3633 8.53613C 43.0488 9.35059 43.3916 10.5166 43.3916 12.0342L 43.3916 12.7109L 36.9492 12.7109C 36.9727 13.6484 37.2451 14.4072 37.7666 14.9873C 38.2939 15.5615 38.9619 15.8486 39.7705 15.8486C 40.3447 15.8486 40.8311 15.7314 41.2295 15.4971C 41.6279 15.2627 41.9766 14.9521 42.2754 14.5654L 43.2686 15.3389C 42.4717 16.5635 41.2764 17.1758 39.6826 17.1758ZM 39.4805 8.65039C 38.8242 8.65039 38.2734 8.89062 37.8281 9.37109C 37.3828 9.8457 37.1074 10.5137 37.002 11.375L 41.7656 11.375L 41.7656 11.252C 41.7188 10.4258 41.4961 9.78711 41.0977 9.33594C 40.6992 8.87891 40.1602 8.65039 39.4805 8.65039Z"/>
<path id="path1_fill" fill-rule="evenodd" d="M 48.4833 34.5426C 45.5179 34.5426 43.1143 32.1472 43.1143 29.1925L 43.1143 16.8356L 43.1143 15.9779C 43.1143 13.0229 40.7102 10.6278 37.7452 10.6278C 34.7797 10.6278 32.9024 13.0232 32.9024 15.9779L 32.9024 17.0764L 32.9024 29.1921C 32.9024 32.1468 29.9717 34.5422 27.0066 34.5422C 24.0412 34.5422 21.6376 32.1468 21.6376 29.1921L 21.6376 26.1755L 21.6376 16.9248C 21.5845 16.8955 21.5304 16.8689 21.4774 16.8399L 21.4774 15.9779C 21.4774 13.0229 19.5542 10.6278 16.5891 10.6278C 13.6237 10.6278 11.22 13.0232 11.22 15.9779L 11.22 17.0724C 11.22 17.0724 11.3802 29.5837 12.0215 33.1016C 12.6625 36.6198 14.7462 38.787 17.4708 41.6654C 20.1955 44.5438 16.0284 51.1715 10.5791 47.4934C 5.12976 43.8154 2.36389 39.1453 1.44348 33.1016C 0.505524 26.9482 0 16.0944 0 16.0944C 0 16.0944 0.213889 12.2053 0.716547 11.3354C 2.7476 4.77005 8.86977 -4.37345e-08 16.108 -4.37345e-08C 20.2722 -4.37345e-08 24.0674 1.57927 26.9264 4.17066C 29.7854 1.57927 33.5806 -4.37345e-08 37.7452 -4.37345e-08C 44.983 -4.37345e-08 51.1052 4.77005 53.1362 11.3354C 53.6389 12.2053 53.8528 16.0944 53.8528 16.0944L 53.8528 26.1758L 53.8528 29.1925C 53.8528 32.1472 51.4488 34.5426 48.4833 34.5426Z"/>
<path id="path2_fill" fill-rule="evenodd" d="M 5.37016 14.0348C 8.33559 14.0348 10.7392 16.4303 10.7392 19.3849L 10.7392 31.7418L 10.7392 32.5995C 10.7392 35.5545 13.1433 37.9499 16.1083 37.9499C 19.0738 37.9499 21.4778 35.5545 21.4778 32.5995L 21.4778 31.501L 21.4778 19.3849C 21.4778 16.4303 23.8814 14.0348 26.8469 14.0348C 29.8123 14.0348 32.2163 16.4303 32.2163 19.3849L 32.2163 22.4016L 32.2163 31.6522C 32.2693 31.6816 32.3234 31.7081 32.3764 31.7371L 32.3764 32.5995C 32.3764 35.5545 34.2997 37.9499 37.2647 37.9499C 40.2302 37.9499 42.6338 35.5545 42.6338 32.5995L 42.6338 31.505C 42.6338 31.505 42.4737 18.9937 41.8324 15.4758C 41.1911 11.9579 39.1077 9.79037 36.383 6.912C 33.6583 4.03364 37.8254 -2.59406 43.2748 1.08397C 48.7241 4.76201 51.49 9.4321 52.4104 15.4758C 53.3476 21.6292 53.8528 32.4831 53.8528 32.4831C 53.8528 32.4831 53.6389 36.3721 53.1362 37.242C 51.1052 43.8074 44.983 48.5774 37.7448 48.5774C 33.5806 48.5774 29.7854 46.9981 26.9264 44.4067C 24.0674 46.9981 20.2722 48.5774 16.1076 48.5774C 8.86978 48.5774 2.7476 43.8074 0.716546 37.242C 0.213889 36.3721 3.22542e-07 32.4831 3.22542e-07 32.4831L 3.22542e-07 22.4016L 3.22542e-07 19.3849C 0.00107514 16.4303 2.40473 14.0348 5.37016 14.0348Z"/>
<path id="path3_fill" d="M 26.5058 1.13501C 25.8577 0.701857 24.9835 0.485102 23.8825 0.485102L 22.0947 0.485102C 21.0192 0.485102 20.2389 0.582194 19.753 0.77602C 19.2672 0.969846 18.9079 1.31916 18.6746 1.82325C 18.4414 2.32734 18.1759 3.14887 17.8778 4.28638L 13.7387 19.8602L 9.59958 4.28638C 9.30149 3.14887 9.03601 2.3277 8.80278 1.82325C 8.56954 1.31916 8.21019 0.969846 7.72437 0.77602C 7.23855 0.582194 6.45788 0.485102 5.3827 0.485102L 3.59492 0.485102C 2.49359 0.485102 1.61904 0.701857 0.971638 1.13501C 0.323879 1.56816 -1.83685e-06 2.40545 -1.83685e-06 3.64651L -1.83685e-06 26.1439C -1.83685e-06 27.2431 0.245775 28.061 0.738401 28.5974C 1.23067 29.1337 1.86553 29.4024 2.64263 29.4024C 3.44587 29.4024 4.09041 29.1309 4.57623 28.5881C 5.06205 28.0449 5.30495 27.2306 5.30495 26.1443L 5.30495 6.51699L 9.87151 24.6313C 10.027 25.226 10.1789 25.7982 10.3283 26.3478C 10.477 26.8974 10.6812 27.3982 10.9402 27.8507C 11.1993 28.3036 11.5622 28.6751 12.0283 28.966C 12.4948 29.257 13.0648 29.4024 13.7384 29.4024C 14.6322 29.4024 15.332 29.176 15.8371 28.7235C 16.3423 28.271 16.6887 27.7701 16.8768 27.2205C 17.0646 26.6709 17.3075 25.8082 17.6056 24.6313L 22.1721 6.51699L 22.1721 26.1443C 22.1721 27.2302 22.4182 28.0449 22.9105 28.5881C 23.4028 29.1312 24.0308 29.4024 24.7954 29.4024C 25.6115 29.4024 26.2625 29.1309 26.7483 28.5881C 27.2341 28.0449 27.4771 27.2306 27.4771 26.1443L 27.4771 3.64651C 27.4771 2.40509 27.1532 1.56816 26.5058 1.13501ZM 51.7479 0.00035812C 51.2815 0.00035812 50.8863 0.0845525 50.5624 0.252583C 50.2385 0.420613 49.9437 0.663164 49.6782 0.979878C 49.4124 1.29695 49.1698 1.63623 48.9495 1.99809C 48.7291 2.3603 48.4568 2.80636 48.1333 3.33624L 42.7506 11.9667L 37.4267 3.33624C 36.6105 2.00454 35.9982 1.11566 35.5902 0.669613C 35.1821 0.223562 34.5827 0.00035812 33.7927 0.00035812C 33.0414 0.00035812 32.4098 0.239685 31.8982 0.71798C 31.3862 1.19663 31.1307 1.76521 31.1307 2.42479C 31.1307 2.8257 31.2572 3.29755 31.5098 3.84069C 31.7624 4.38383 32.193 5.14015 32.8021 6.10999L 39.7587 16.874L 39.7587 25.8924C 39.7587 27.0822 40.0241 27.9647 40.5555 28.5397C 41.0864 29.1147 41.7797 29.4028 42.6345 29.4028C 43.4765 29.4028 44.1697 29.1119 44.714 28.53C 45.2582 27.9482 45.5301 27.069 45.5301 25.8924L 45.5301 16.8736L 52.6619 5.9545C 53.2577 5.0624 53.6787 4.36413 53.9252 3.86004C 54.1709 3.35595 54.2945 2.8515 54.2945 2.34741C 54.2945 1.72688 54.0516 1.18087 53.5658 0.708665C 53.0793 0.236461 52.4734 0.00035812 51.7479 0.00035812ZM 99.0268 0.00035812C 98.2751 0.00035812 97.7019 0.194184 97.3071 0.582194C 96.9119 0.970204 96.6331 1.40981 96.4716 1.901C 96.3093 2.39255 96.138 3.07112 95.9567 3.93743L 92.2253 20.5391L 88.0084 5.00436C 87.6587 3.72425 87.38 2.80635 87.1729 2.25031C 86.9655 1.69463 86.5929 1.18051 86.0555 0.708665C 85.5177 0.236819 84.7632 0.00071688 83.7915 0.00071688C 82.8328 0.00071688 82.0747 0.227145 81.5179 0.679644C 80.9608 1.1325 80.5592 1.66884 80.3131 2.28937C 80.0669 2.9099 79.7882 3.81525 79.4776 5.00472L 75.3001 20.5391L 71.5691 3.93743C 71.2971 2.65731 70.9793 1.68138 70.6168 1.0089C 70.2538 0.336777 69.548 0.00035812 68.4987 0.00035812C 67.7341 0.00035812 67.0928 0.252583 66.5747 0.756673C 66.0563 1.26076 65.7973 1.88165 65.7973 2.61862C 65.7973 3.20046 65.9395 4.04742 66.2247 5.15914L 70.9661 24.3013C 71.1087 24.8706 71.2702 25.4876 71.4519 26.1536C 71.6332 26.8196 71.8664 27.3947 72.1516 27.8798C 72.4364 28.3645 72.809 28.74 73.2691 29.0047C 73.7287 29.2695 74.3149 29.4024 75.0278 29.4024C 75.9085 29.4024 76.6146 29.1796 77.1459 28.7335C 77.6769 28.2875 78.0495 27.783 78.2634 27.2209C 78.4773 26.6584 78.7653 25.7308 79.1283 24.4378L 83.7919 7.3901L 88.3972 24.4378C 88.7726 25.7695 89.0643 26.7104 89.2717 27.2596C 89.4788 27.8092 89.8482 28.304 90.3795 28.7432C 90.9104 29.1828 91.6166 29.4028 92.4976 29.4028C 93.4302 29.4028 94.1525 29.1764 94.6644 28.7239C 95.176 28.2714 95.539 27.7443 95.7525 27.1432C 95.9664 26.542 96.2351 25.5951 96.559 24.302L 101.3 5.15985C 101.585 3.99618 101.728 3.14958 101.728 2.61934C 101.728 1.86947 101.466 1.24572 100.941 0.747717C 100.416 0.249358 99.7781 0.00035812 99.0268 0.00035812ZM 108.646 0.00035812C 107.803 0.00035812 107.117 0.291276 106.586 0.873112C 106.055 1.45495 105.789 2.3277 105.789 3.49137L 105.789 25.8917C 105.789 27.0554 106.058 27.9314 106.596 28.5196C 107.133 29.1079 107.817 29.4021 108.646 29.4021C 109.513 29.4021 110.216 29.1111 110.754 28.5293C 111.292 27.9475 111.561 27.0683 111.561 25.8917L 111.561 3.49137C 111.561 2.31516 111.292 1.43883 110.754 0.863439C 110.216 0.28841 109.513 0.00035812 108.646 0.00035812ZM 136.754 14.294C 135.841 13.6477 134.733 13.0981 133.431 12.6456C 132.129 12.1931 130.675 11.7797 129.069 11.4046C 127.786 11.0814 126.866 10.8356 126.309 10.6676C 125.752 10.4996 125.202 10.267 124.658 9.96932C 124.113 9.67195 123.686 9.31654 123.375 8.90274C 123.064 8.48929 122.909 7.99774 122.909 7.4288C 122.909 6.5109 123.365 5.72557 124.279 5.07243C 125.192 4.41966 126.393 4.09292 127.883 4.09292C 129.489 4.09292 130.655 4.39351 131.381 4.99469C 132.107 5.59587 132.728 6.43316 133.247 7.50619C 133.648 8.25605 134.02 8.79597 134.364 9.12558C 134.707 9.45519 135.209 9.62 135.87 9.62C 136.595 9.62 137.201 9.34556 137.687 8.79561C 138.172 8.24638 138.415 7.62907 138.415 6.94334C 138.415 6.19347 138.221 5.42426 137.832 4.63534C 137.444 3.84678 136.828 3.09333 135.986 2.37571C 135.144 1.65809 134.085 1.08306 132.809 0.64955C 131.533 0.216397 130.021 4.37345e-08 128.272 4.37345e-08C 126.082 4.37345e-08 124.178 0.326745 122.559 0.979519C 120.939 1.63265 119.702 2.56667 118.847 3.78193C 117.992 4.99756 117.564 6.3873 117.564 7.95188C 117.564 9.5942 117.969 10.9678 118.779 12.0731C 119.588 13.1787 120.683 14.0511 122.063 14.6914C 123.442 15.3312 125.155 15.8909 127.202 16.3688C 128.731 16.7178 129.952 17.0477 130.865 17.358C 131.779 17.6683 132.524 18.1175 133.1 18.7058C 133.676 19.2945 133.965 20.0604 133.965 21.0041C 133.965 22.194 133.431 23.186 132.362 23.981C 131.293 24.776 129.903 25.1737 128.193 25.1737C 126.95 25.1737 125.946 24.9767 125.181 24.5822C 124.417 24.1881 123.824 23.6869 123.403 23.0793C 122.982 22.4716 122.59 21.7153 122.228 20.81C 121.93 20.0472 121.57 19.4718 121.149 19.0838C 120.728 18.6958 120.213 18.502 119.605 18.502C 118.853 18.502 118.235 18.751 117.749 19.2486C 117.263 19.7466 117.02 20.3442 117.02 21.0425C 117.02 22.2448 117.425 23.483 118.235 24.7563C 119.044 26.03 120.097 27.0482 121.392 27.811C 123.219 28.8715 125.538 29.4013 128.349 29.4013C 130.693 29.4013 132.721 29.0133 134.431 28.2377C 136.141 27.462 137.44 26.389 138.328 25.0182C 139.215 23.6478 139.659 22.1026 139.659 20.3829C 139.659 18.9476 139.403 17.7356 138.891 16.7464C 138.38 15.7583 137.668 14.9407 136.754 14.294ZM 167.788 0.863439C 167.25 0.28841 166.547 0.00035812 165.679 0.00035812C 164.824 0.00035812 164.134 0.291276 163.61 0.873112C 163.085 1.45495 162.823 2.3277 162.823 3.49137L 162.823 11.6371L 150.367 11.6371L 150.367 3.49137C 150.367 2.31516 150.098 1.43883 149.56 0.863439C 149.022 0.28841 148.319 0.00035812 147.452 0.00035812C 146.571 0.00035812 145.874 0.291276 145.363 0.873112C 144.851 1.45495 144.595 2.3277 144.595 3.49137L 144.595 25.8917C 144.595 27.0554 144.854 27.9314 145.373 28.5196C 145.891 29.1079 146.584 29.4021 147.452 29.4021C 148.307 29.4021 149.006 29.1111 149.55 28.5293C 150.095 27.9475 150.367 27.0683 150.367 25.8917L 150.367 16.3305L 162.823 16.3305L 162.823 25.8921C 162.823 27.0557 163.082 27.9317 163.6 28.52C 164.118 29.1083 164.811 29.4024 165.679 29.4024C 166.534 29.4024 167.234 29.1115 167.778 28.5297C 168.322 27.9478 168.594 27.0686 168.594 25.8917L 168.594 3.49137C 168.594 2.3148 168.325 1.43883 167.788 0.863439Z"/>
</defs>
</svg>
